# xmcd CD Database Entry
#
# Track frame offsets:
# 150
# 19060
# 32335
#
# Disc length: 631 seconds
#
# Revision: 1
# Processed by: cddbd v1.4b41PL1 Copyright (c) Steve Scherf et al.
# Submitted via: tcd 2.0b
#
DISCID=15027503
DTITLE=Sixteen horsepower - The partisan
DYEAR=1900
DGENRE=
TTITLE0=The partisan
TTITLE1=Fire spirit
TTITLE2=Ditch digger
EXTD=
EXTT0=
EXTT1=
EXTT2=
PLAYORDER=
